<svg width="17" height="17" viewBox="0 0 17 17" fill="none" xmlns="http://www.w3.org/2000/svg">
<path fill-rule="evenodd" clip-rule="evenodd" d="M11.1568 5.83333L10.8938 6.49715L9.72975 9.4355L9.15867 10.877L7.72334 14.5H9.49752L10.2251 12.5326H13.8117L14.552 14.5H16.39L12.9565 5.83333H11.2178H11.1568ZM11.0086 10.4348L10.7739 11.0632H11.4936H13.2756L12.0248 7.7136L11.0086 10.4348ZM9.91723 5.34224C9.94394 5.27481 9.97575 5.21045 10.0121 5.14954H6.8091V2.5H5.31601V5.14954H0.930817V6.49715H4.70467C3.74063 8.29015 2.14174 10.0146 0.390015 10.9283C0.719199 11.2138 1.20122 11.7391 1.43634 12.0931C2.94119 11.1795 4.29319 9.72912 5.31601 8.07316V13.1667H6.8091V8.01606C7.20952 8.65256 7.65749 9.26169 8.14211 9.82292L8.70997 8.38955C8.19192 7.79052 7.73632 7.14699 7.37341 6.49715H9.45969L9.91723 5.34224Z" fill="white"/>
</svg>
